HIERARCHY
ROOT Hips
{
	OFFSET 0.000000 1.471914 24.280096
	CHANNELS 6 Xposition Yposition Zposition Xrotation Yrotation Zrotation
	JOINT Spine
	{
		OFFSET 0.000000 0.900110 1.860670
		CHANNELS 6 Xposition Yposition Zposition Xrotation Yrotation Zrotation
		JOINT Spine1
		{
			OFFSET 0.000000 0.400320 2.270309
			CHANNELS 6 Xposition Yposition Zposition Xrotation Yrotation Zrotation
			JOINT Spine2
			{
				OFFSET 0.000000 0.200920 2.296560
				CHANNELS 6 Xposition Yposition Zposition Xrotation Yrotation Zrotation
				JOINT Spine3
				{
					OFFSET 0.000000 0.000000 2.305330
					CHANNELS 6 Xposition Yposition Zposition Xrotation Yrotation Zrotation
					JOINT Neck
					{
						OFFSET 0.000000 -0.864490 6.051487
						CHANNELS 6 Xposition Yposition Zposition Xrotation Yrotation Zrotation
						JOINT Head
						{
							OFFSET 0.000000 -0.550429 3.121674
							CHANNELS 6 Xposition Yposition Zposition Xrotation Yrotation Zrotation
							End Site
							{
								OFFSET 0.000000 0.000000 3.731750
							}
						}
					}
					JOINT RightShoulder
					{
						OFFSET -0.788280 -1.313800 4.256718
						CHANNELS 6 Xposition Yposition Zposition Xrotation Yrotation Zrotation
						JOINT RightArm
						{
							OFFSET -3.915130 0.000000 0.000000
							CHANNELS 6 Xposition Yposition Zposition Xrotation Yrotation Zrotation
							JOINT RightForeArm
							{
								OFFSET -6.914910 0.000000 0.000000
								CHANNELS 6 Xposition Yposition Zposition Xrotation Yrotation Zrotation
								JOINT RightHand
								{
									OFFSET -6.096219 0.000000 0.000000
									CHANNELS 6 Xposition Yposition Zposition Xrotation Yrotation Zrotation
									JOINT RightHandEnd
									{
										OFFSET -1.749950 0.000000 0.000000
										CHANNELS 6 Xposition Yposition Zposition Xrotation Yrotation Zrotation
										End Site
										{
											OFFSET -1.749950 0.000000 0.000000
										}
									}
									JOINT RightHandThumb1
									{
										OFFSET -0.699980 -1.166630 -0.466648
										CHANNELS 6 Xposition Yposition Zposition Xrotation Yrotation Zrotation
										End Site
										{
											OFFSET -1.690319 -0.452920 0.000000
										}
									}
								}
							}
						}
					}
					JOINT LeftShoulder
					{
						OFFSET 0.788280 -1.313800 4.256718
						CHANNELS 6 Xposition Yposition Zposition Xrotation Yrotation Zrotation
						JOINT LeftArm
						{
							OFFSET 3.915130 0.000000 0.000000
							CHANNELS 6 Xposition Yposition Zposition Xrotation Yrotation Zrotation
							JOINT LeftForeArm
							{
								OFFSET 6.914910 0.000000 0.000000
								CHANNELS 6 Xposition Yposition Zposition Xrotation Yrotation Zrotation
								JOINT LeftHand
								{
									OFFSET 6.096219 0.000000 0.000000
									CHANNELS 6 Xposition Yposition Zposition Xrotation Yrotation Zrotation
									JOINT LeftHandEnd
									{
										OFFSET 1.749950 0.000000 0.000000
										CHANNELS 6 Xposition Yposition Zposition Xrotation Yrotation Zrotation
										End Site
										{
											OFFSET 1.749950 0.000000 0.000000
										}
									}
									JOINT LeftHandThumb1
									{
										OFFSET 0.699980 -1.166630 -0.466648
										CHANNELS 6 Xposition Yposition Zposition Xrotation Yrotation Zrotation
										End Site
										{
											OFFSET 1.690319 -0.452920 0.000000
										}
									}
								}
							}
						}
					}
				}
			}
		}
	}
	JOINT RightUpLeg
	{
		OFFSET -2.338570 -0.252550 -0.551512
		CHANNELS 6 Xposition Yposition Zposition Xrotation Yrotation Zrotation
		JOINT RightLeg
		{
			OFFSET 0.000000 0.000000 -10.744959
			CHANNELS 6 Xposition Yposition Zposition Xrotation Yrotation Zrotation
			JOINT RightFoot
			{
				OFFSET 0.000000 -0.000001 -10.930849
				CHANNELS 6 Xposition Yposition Zposition Xrotation Yrotation Zrotation
				JOINT RightToeBase
				{
					OFFSET 0.000000 -4.087269 -1.487650
					CHANNELS 6 Xposition Yposition Zposition Xrotation Yrotation Zrotation
					End Site
					{
						OFFSET 0.000000 -1.891870 0.000000
					}
				}
			}
		}
	}
	JOINT LeftUpLeg
	{
		OFFSET 2.338570 -0.252550 -0.551512
		CHANNELS 6 Xposition Yposition Zposition Xrotation Yrotation Zrotation
		JOINT LeftLeg
		{
			OFFSET 0.000000 0.000000 -10.744959
			CHANNELS 6 Xposition Yposition Zposition Xrotation Yrotation Zrotation
			JOINT LeftFoot
			{
				OFFSET 0.000000 -0.000001 -10.930849
				CHANNELS 6 Xposition Yposition Zposition Xrotation Yrotation Zrotation
				JOINT LeftToeBase
				{
					OFFSET 0.000000 -4.087269 -1.487650
					CHANNELS 6 Xposition Yposition Zposition Xrotation Yrotation Zrotation
					End Site
					{
						OFFSET 0.000000 -1.891870 0.000000
					}
				}
			}
		}
	}
}
MOTION
Frames: 4
Frame Time: 0.041667
-0.000016 26.539896 40.351543 -14.918149 4.831517 -14.248707 -0.000016 0.900098 1.860694 32.107090 -3.648433 -1.734016 0.000001 0.400280 2.270323 -0.000003 -0.000003 -0.000002 0.000018 0.200874 2.296534 -0.000001 -0.000000 0.000002 0.000025 -0.000018 2.305318 -0.000023 0.000003 -0.942941 -0.000003 -0.864473 6.051466 -5.428594 -5.496683 -173.987034 0.000016 -0.550447 3.121727 -0.000001 -0.000001 -0.000006 -0.788279 -1.313732 4.256767 -130.572071 52.186433 -50.136249 -3.915085 -0.000001 -0.000042 0.000000 0.000002 -0.000001 -6.914877 -0.000006 -0.000000 0.000010 0.000018 -28.557364 -6.096197 -0.000005 -0.000001 -0.000020 0.000051 -0.000091 -1.749906 -0.000013 0.000008 -0.000003 0.000003 -0.000001 -0.700003 -1.166621 -0.466664 0.000002 -0.000004 0.000001 0.788265 -1.313782 4.256730 -130.504479 -51.445962 50.259633 3.915172 0.000011 -0.000023 0.000001 -0.000001 0.000000 6.914903 -0.000012 -0.000013 0.000005 -0.000010 27.633888 6.096207 0.000053 -0.000004 0.000047 -0.000085 0.000043 1.749922 0.000005 0.000027 0.000008 -0.000006 0.000000 0.699952 -1.166615 -0.466648 0.000029 -0.000005 -0.000022 -2.338573 -0.252535 -0.551507 23.370141 -5.566688 -1.298326 0.000018 -0.000014 -10.744967 10.393265 4.123961 -1.537999 -0.000019 0.000052 -10.930834 -0.000003 -0.000004 0.000004 0.000001 -4.087258 -1.487646 0.000001 0.000001 -0.000001 2.338574 -0.252528 -0.551462 23.741415 -1.077697 -1.310672 -0.000008 -0.000027 -10.744926 9.282370 4.784171 -0.653798 -0.000010 0.000013 -10.930861 0.000020 -0.000002 -0.000003 -0.000016 -4.087234 -1.487651 -0.000000 -0.000000 -0.000001 
-0.000016 26.539904 40.351524 -14.910293 5.002480 -14.511980 -0.000016 0.900092 1.860694 31.550973 -3.303040 -1.732139 0.000000 0.400278 2.270314 -0.000003 -0.000002 0.000001 0.000019 0.200872 2.296537 -0.000000 0.000000 0.000004 0.000026 -0.000019 2.305322 -0.000021 0.000003 -0.767262 -0.000003 -0.864475 6.051460 -4.889244 -5.535381 -174.188498 0.000016 -0.550443 3.121719 -0.000000 -0.000001 -0.000005 -0.788280 -1.313733 4.256767 -139.038158 54.141544 -41.699944 -3.915085 -0.000008 -0.000042 0.000000 0.000004 -0.000002 -6.914876 -0.000010 -0.000004 0.000011 0.000013 -27.894105 -6.096210 -0.000005 0.000004 -0.000018 0.000047 -0.000091 -1.749919 -0.000018 0.000011 -0.000006 0.000007 -0.000001 -0.700009 -1.166628 -0.466661 -0.000001 -0.000001 -0.000001 0.788265 -1.313784 4.256727 -138.771644 -53.571277 41.504215 3.915167 0.000011 -0.000019 -0.000000 -0.000003 0.000003 6.914902 -0.000009 -0.000013 0.000013 -0.000012 26.941454 6.096200 0.000054 -0.000004 0.000049 -0.000085 0.000047 1.749918 0.000006 0.000027 0.000003 -0.000006 0.000004 0.699943 -1.166614 -0.466643 0.000027 -0.000004 -0.000023 -2.338573 -0.252543 -0.551500 23.103783 -4.962983 -1.302200 0.000018 -0.000018 -10.744973 12.021427 4.002088 -1.660640 -0.000020 0.000049 -10.930838 -0.000002 -0.000005 0.000005 0.000001 -4.087258 -1.487645 -0.000000 0.000001 -0.000004 2.338573 -0.252536 -0.551457 23.480367 -1.770602 -1.317997 -0.000008 -0.000026 -10.744925 10.448811 4.135494 -0.869562 -0.000010 0.000015 -10.930861 0.000022 -0.000001 0.000000 -0.000015 -4.087235 -1.487651 -0.000001 -0.000000 -0.000003 
-0.000031 26.539909 40.351501 -14.470318 5.132290 -14.759340 -0.000016 0.900095 1.860701 29.642922 -3.420126 -1.672359 0.000001 0.400280 2.270310 -0.000003 -0.000002 0.000001 0.000019 0.200875 2.296535 -0.000000 -0.000000 0.000003 0.000026 -0.000015 2.305314 -0.000020 0.000005 -0.777065 -0.000003 -0.864479 6.051466 -3.233010 -4.702553 -174.229697 0.000015 -0.550437 3.121727 -0.000001 -0.000001 -0.000006 -0.788278 -1.313741 4.256771 -155.151763 56.938328 -25.814027 -3.915084 -0.000006 -0.000038 0.000000 0.000003 -0.000001 -6.914866 -0.000004 -0.000007 0.000011 0.000016 -27.561391 -6.096200 -0.000004 0.000003 -0.000018 0.000052 -0.000096 -1.749907 -0.000014 0.000008 -0.000004 -0.000001 -0.000000 -0.700001 -1.166624 -0.466657 0.000001 -0.000003 -0.000001 0.788265 -1.313788 4.256736 -146.761286 -54.166060 31.700223 3.915169 0.000011 -0.000019 0.000002 -0.000001 0.000003 6.914899 -0.000013 -0.000016 0.000012 -0.000010 25.970126 6.096199 0.000050 -0.000004 0.000053 -0.000082 0.000046 1.749921 0.000012 0.000031 0.000002 -0.000002 0.000001 0.699948 -1.166611 -0.466639 0.000024 0.000000 -0.000024 -2.338572 -0.252539 -0.551502 22.298107 -4.378782 -1.284250 0.000019 -0.000021 -10.744970 13.895178 3.183021 -1.795722 -0.000021 0.000047 -10.930836 0.000002 -0.000005 0.000004 0.000001 -4.087256 -1.487643 0.000004 0.000003 -0.000001 2.338574 -0.252532 -0.551455 22.921440 -2.129560 -1.316095 -0.000007 -0.000026 -10.744923 12.704338 3.229163 -1.150309 -0.000010 0.000006 -10.930860 0.000019 -0.000002 0.000001 -0.000016 -4.087238 -1.487654 0.000001 -0.000000 0.000001 
-0.000037 26.539906 40.351494 -13.496693 4.856714 -15.714949 -0.000016 0.900091 1.860687 27.861880 -2.868165 -1.648347 0.000000 0.400278 2.270314 -0.000004 -0.000001 0.000004 0.000019 0.200878 2.296535 -0.000001 -0.000000 0.000002 0.000026 -0.000016 2.305318 -0.000025 0.000005 -0.668002 -0.000001 -0.864476 6.051465 -2.057927 -3.953490 -174.574403 0.000016 -0.550444 3.121727 -0.000000 -0.000000 -0.000003 -0.788278 -1.313737 4.256769 -165.668328 55.297645 -15.553734 -3.915080 -0.000007 -0.000042 0.000001 0.000002 -0.000002 -6.914872 -0.000009 -0.000001 0.000010 0.000011 -30.923763 -6.096198 -0.000009 0.000001 -0.000016 0.000050 -0.000090 -1.749914 -0.000019 0.000011 -0.000003 0.000003 0.000004 -0.700003 -1.166629 -0.466656 0.000004 -0.000001 0.000005 0.788267 -1.313784 4.256733 -154.417709 -52.469862 22.438266 3.915169 0.000009 -0.000023 0.000002 -0.000005 0.000005 6.914906 -0.000017 -0.000016 0.000013 -0.000014 27.159489 6.096207 0.000054 -0.000007 0.000053 -0.000081 0.000046 1.749922 0.000009 0.000027 0.000004 0.000001 0.000002 0.699955 -1.166611 -0.466644 0.000024 -0.000000 -0.000024 -2.338572 -0.252542 -0.551511 21.121820 -3.490863 -1.271470 0.000016 -0.000014 -10.744973 15.190588 2.313739 -1.770849 -0.000021 0.000055 -10.930838 0.000002 -0.000003 0.000004 0.000000 -4.087254 -1.487644 0.000001 0.000002 -0.000001 2.338574 -0.252535 -0.551468 21.290149 -2.120903 -1.280762 -0.000007 -0.000024 -10.744928 14.127948 3.396134 -1.316752 -0.000011 0.000017 -10.930863 0.000022 -0.000002 0.000000 -0.000016 -4.087236 -1.487655 -0.000001 0.000000 0.000002 
